<?xml version="1.0" encoding="utf-8"?>
<!-- Generator: Adobe Illustrator 27.0.0, SVG Export Plug-In . SVG Version: 6.00 Build 0)  -->
<svg version="1.1" id="Layer_1" xmlns="http://www.w3.org/2000/svg" xmlns:xlink="http://www.w3.org/1999/xlink" x="0px" y="0px"
	 viewBox="0 0 450 116" style="enable-background:new 0 0 450 116;" xml:space="preserve">
<style type="text/css">
	.st0{fill:#EC008C;}
	.st1{fill:#EF6722;}
	.st2{opacity:0.63;}
	.st3{clip-path:url(#SVGID_00000037655029336395774320000015191726975363155854_);fill:#F036A4;}
	.st4{opacity:0.5;}
	.st5{clip-path:url(#SVGID_00000170969437205341767000000003609080234878855101_);fill:#F036A4;}
	.st6{opacity:0.84;}
	.st7{clip-path:url(#SVGID_00000142159788437111894080000005350027419031178164_);fill:#EF6722;}
	.st8{opacity:0.7;}
	.st9{clip-path:url(#SVGID_00000116217534470705920350000009245374971810667928_);fill:#F28751;}
	.st10{opacity:0.88;}
	.st11{clip-path:url(#SVGID_00000116932839437854041970000016099236420466585473_);fill:#F28751;}
	.st12{opacity:0.69;}
	.st13{clip-path:url(#SVGID_00000048481938823872084750000018193124807930418327_);fill:#EE1A97;}
	.st14{opacity:0.42;}
	.st15{clip-path:url(#SVGID_00000160897033583819621610000007136942509778006169_);fill:#F038A5;}
	.st16{clip-path:url(#SVGID_00000039134424014704251160000004823425023242400434_);fill:#F35CB5;}
	.st17{clip-path:url(#SVGID_00000064328472708639771210000013663712301617574814_);fill:#EE1A97;}
	.st18{clip-path:url(#SVGID_00000181051164196924526860000005788637298322805407_);fill:#F466BA;}
	.st19{clip-path:url(#SVGID_00000143610967063942165900000003461676920485832889_);fill:#B0552B;}
	.st20{clip-path:url(#SVGID_00000042002221958770249180000014362933762591676852_);fill:#A74213;}
	.st21{clip-path:url(#SVGID_00000076566169590475096770000017696829877544522899_);fill:#EE1C98;}
</style>
<g>
	<g>
		<path class="st0" d="M434.2,75.6v-5.2H420v-8.6h11.1v-5.2H420v-8h13.5v-5.2h-19.7v32.3h20.4V75.6z M408.1,45.4
			c-2.2-1-3-1.4-4.6-1.9c-2-0.6-3.9-0.8-6.1-0.8c-3.8,0-5.8,0.5-8.1,2.2c-1,0.7-1.9,1.6-2.4,2.4c-0.8,1.2-1.3,2.9-1.3,4.5
			c0,3.5,1.8,5.7,7.5,9l5,2.8c2.1,1.2,2.8,2.1,2.8,3.5c0,2-1.9,3.2-4.7,3.2c-1.3,0-3-0.3-4.7-0.9c-1.3-0.5-2.3-1-4.6-2.3l-2.6,5.7
			l2.1,1c3.4,1.6,4.5,2,6.8,2.3c0.9,0.1,1.9,0.2,2.9,0.2c7.2,0,11.4-3.4,11.4-9.2c0-2.3-0.8-4.4-2.2-5.8c-1.5-1.5-4.8-3.6-9.7-6.2
			c-2.3-1.2-3.1-2.1-3.1-3.4c0-1.8,1.9-3,4.8-3c2.2,0,4.9,0.8,8.4,2.3L408.1,45.4z M378.8,63V43.3h-6.2v20c0,4.7-2.5,7.2-7.2,7.2
			c-5.1,0-7.6-2.4-7.6-7.2v-20h-6.1V63c0,5.9,1.1,8.6,4.4,10.9c2.5,1.7,5.1,2.4,9.2,2.4c4,0,6.8-0.7,9.1-2.4
			C377.7,71.5,378.8,68.9,378.8,63 M345.9,48.5v-5.2h-20v32.3h6.2V62h11.4v-5.2h-11.4v-8.3H345.9z"/>
		<path class="st1" d="M317.6,75.6v-3.4H303V60.8h11.7v-3.4H303V46.6h14.2v-3.4H299v32.3h18.6V75.6z M285.1,52
			c0,4.2-2.2,6.3-6.5,6.3h-5.2V46.6h5.2c2.9,0,3.7,0.1,4.7,0.9C284.5,48.5,285.1,50,285.1,52 M291.2,75.6l-9.6-14.5
			c2.4-0.5,3.6-1.1,4.9-2.4c1.8-1.7,2.8-4.2,2.8-6.7s-1-4.8-2.5-6.3c-1.9-1.8-3.7-2.4-7.6-2.4h-9.8v32.3h4V61.7h4.3l8.9,13.9H291.2z
			 M260,64.5V43.2h-4v20c0,4-0.3,5.1-1.9,6.9c-1.6,1.8-4,2.8-6.8,2.8s-5.1-1-6.8-2.8c-1.6-1.7-1.9-2.8-1.9-6.9v-20h-4v21.3
			c0,4.2,1.1,6.8,3.8,9c2.4,2,5.4,3,8.9,3s6.5-1,8.9-3C259,71.3,260,68.9,260,64.5 M228.8,46.7v-3.4h-25.6v3.4H214v29h4v-29H228.8z
			 M205.8,75.6v-3.4h-14.5v-29h-4v32.3L205.8,75.6L205.8,75.6z M178.5,64.5V43.2h-4v20c0,4-0.3,5.1-1.9,6.9c-1.6,1.8-4,2.8-6.8,2.8
			s-5.1-1-6.8-2.8c-1.6-1.7-1.9-2.8-1.9-6.9v-20h-4v21.3c0,4.2,1.1,6.8,3.8,9c2.4,2,5.4,3,8.9,3s6.5-1,8.9-3
			C177.4,71.3,178.5,68.9,178.5,64.5 M147.5,45.8c-1.6-1.1-2.3-1.5-3.7-2c-1.9-0.7-4-1.1-6.1-1.1c-9.3,0-16.3,7.2-16.3,16.6
			c0,9.9,6.9,17,16.7,17c1.5,0,2.8-0.1,4.5-0.5c1.6-0.4,2.4-0.7,4.4-1.6l-1.1-3.1c-2.6,1.1-4.7,1.5-7.4,1.5
			c-7.6,0-12.5-5.3-12.5-13.5c0-7.4,4.9-12.7,11.8-12.7c3.1,0,5.5,0.7,7.9,2.5L147.5,45.8z"/>
		<path class="st0" d="M434.2,101.3V94c0-1.4-0.3-2.5-1-3.1c-0.7-0.7-1.7-1-3.1-1c-0.8,0-1.5,0.2-2.1,0.5s-1.1,0.7-1.5,1.3h-0.1
			l-0.3-1.5h-1.4v11.2h1.7v-5.9c0-1.5,0.3-2.5,0.8-3.1s1.4-1,2.6-1c0.9,0,1.5,0.2,2,0.7c0.4,0.5,0.6,1.1,0.6,2.1v7.3h1.8V101.3z
			 M415.1,91.7c0.4-0.4,1-0.6,1.8-0.6c1.7,0,2.5,0.8,2.5,2.5c0,1.6-0.8,2.4-2.5,2.4c-0.8,0-1.4-0.2-1.9-0.6c-0.4-0.4-0.7-1-0.7-1.8
			C414.5,92.8,414.7,92.2,415.1,91.7 M414.2,101.6c0.4-0.4,1-0.6,1.8-0.6h2c1,0,1.7,0.1,2.1,0.4c0.4,0.2,0.6,0.7,0.6,1.3
			c0,0.7-0.3,1.3-1,1.7s-1.7,0.6-3.2,0.6c-1,0-1.7-0.2-2.2-0.5s-0.8-0.8-0.8-1.4C413.6,102.5,413.8,102,414.2,101.6 M418.6,90.1
			c-0.5-0.1-1-0.2-1.6-0.2c-1.4,0-2.4,0.3-3.1,1s-1.1,1.6-1.1,2.8c0,0.7,0.2,1.4,0.5,2c0.4,0.6,0.8,1,1.4,1.2
			c-0.5,0.3-0.8,0.6-1,0.9c-0.2,0.3-0.3,0.7-0.3,1.1c0,0.4,0.1,0.7,0.3,1c0.2,0.3,0.4,0.5,0.7,0.6c-0.8,0.2-1.4,0.5-1.8,1
			s-0.7,1.1-0.7,1.8c0,1,0.4,1.8,1.2,2.3c0.8,0.5,1.9,0.8,3.4,0.8c1.9,0,3.4-0.3,4.4-1s1.5-1.6,1.5-2.8c0-1-0.3-1.7-1-2.2
			s-1.6-0.8-2.8-0.8h-2c-0.6,0-1-0.1-1.3-0.2c-0.3-0.1-0.4-0.4-0.4-0.7c0-0.6,0.4-1.1,1.1-1.4c0.3,0.1,0.6,0.1,0.9,0.1
			c1.3,0,2.3-0.3,3.1-1c0.8-0.7,1.1-1.5,1.1-2.6c0-0.5-0.1-0.9-0.2-1.3c-0.2-0.4-0.3-0.7-0.5-0.9l2.1-0.2v-1.1h-3.9V90.1z
			 M408.2,87.9c0.2,0.2,0.4,0.3,0.7,0.3c0.3,0,0.5-0.1,0.7-0.3s0.3-0.5,0.3-0.9s-0.1-0.7-0.3-0.9c-0.2-0.2-0.4-0.3-0.7-0.3
			c-0.3,0-0.5,0.1-0.7,0.3s-0.3,0.5-0.3,0.9C407.9,87.4,408,87.7,408.2,87.9 M409.8,90.1h-1.7v11.2h1.7V90.1z M404.6,96.4
			c-0.5-0.5-1.4-1-2.7-1.5c-1-0.4-1.6-0.6-2-0.8c-0.3-0.2-0.6-0.4-0.7-0.6c-0.2-0.2-0.2-0.5-0.2-0.8c0-0.4,0.2-0.8,0.6-1
			c0.4-0.3,1-0.4,1.8-0.4c0.9,0,1.9,0.2,3.1,0.7l0.6-1.4c-1.2-0.5-2.3-0.7-3.5-0.7c-1.3,0-2.3,0.3-3.1,0.8c-0.7,0.5-1.1,1.3-1.1,2.2
			c0,0.5,0.1,1,0.3,1.3c0.2,0.4,0.5,0.7,1,1c0.4,0.3,1.2,0.6,2.2,1c1.1,0.4,1.8,0.8,2.2,1.1c0.4,0.3,0.6,0.7,0.6,1.1
			c0,0.6-0.2,1-0.7,1.3s-1.2,0.4-2.1,0.4c-0.6,0-1.2-0.1-1.8-0.2c-0.6-0.2-1.2-0.4-1.7-0.6v1.6c0.8,0.5,2,0.7,3.5,0.7
			c1.4,0,2.5-0.3,3.3-0.9c0.8-0.6,1.2-1.4,1.2-2.4C405.3,97.5,405.1,96.9,404.6,96.4 M392.7,92.1c0.5,0.6,0.7,1.4,0.7,2.5h-5.9
			c0.1-1,0.4-1.9,0.9-2.4c0.5-0.6,1.3-0.9,2.2-0.9C391.5,91.3,392.2,91.6,392.7,92.1 M393,101.3c0.5-0.1,1.1-0.3,1.7-0.6v-1.5
			c-1.2,0.5-2.4,0.8-3.6,0.8c-1.1,0-2-0.3-2.7-1c-0.6-0.7-1-1.7-1-3h7.7v-1.1c0-1.5-0.4-2.7-1.2-3.7c-0.8-0.9-1.9-1.4-3.3-1.4
			c-1.5,0-2.7,0.5-3.6,1.6s-1.3,2.5-1.3,4.3s0.5,3.2,1.4,4.2c1,1,2.3,1.5,3.9,1.5C391.9,101.5,392.5,101.4,393,101.3 M375.5,99
			c-0.5-0.7-0.8-1.8-0.8-3.3c0-1.4,0.3-2.5,0.8-3.3s1.3-1.2,2.3-1.2c1.2,0,2,0.3,2.5,1s0.8,1.8,0.8,3.4V96c0,1.4-0.3,2.4-0.8,3.1
			c-0.5,0.6-1.4,0.9-2.5,0.9C376.8,100.1,376,99.7,375.5,99 M381.4,101.3h1.4v-16h-1.7v4.6v0.8l0.1,0.8h-0.1c-0.8-1.1-2-1.7-3.5-1.7
			s-2.6,0.5-3.4,1.5s-1.2,2.5-1.2,4.3c0,1.9,0.4,3.3,1.2,4.3c0.8,1,2,1.5,3.4,1.5c1.6,0,2.7-0.6,3.5-1.7h0.1L381.4,101.3z
			 M360.3,101.4l-0.6,1.6c-0.5,1.3-1.3,2-2.5,2c-0.5,0-0.9,0-1.3-0.1v1.4c0.5,0.1,1,0.2,1.5,0.2c0.9,0,1.7-0.3,2.4-0.8
			c0.6-0.5,1.2-1.4,1.7-2.7l4.8-12.8h-1.8c-1.6,4.3-2.5,6.9-2.8,7.8c-0.3,0.8-0.5,1.4-0.6,1.8H361c-0.1-0.6-0.5-1.7-1-3.2l-2.5-6.4
			h-1.8L360.3,101.4z M352.1,92.4c0.5,0.7,0.8,1.8,0.8,3.3c0,1.4-0.3,2.5-0.8,3.3s-1.3,1.1-2.3,1.1c-1.2,0-2-0.3-2.5-1
			s-0.8-1.8-0.8-3.4c0-1.6,0.3-2.7,0.8-3.4s1.4-1,2.5-1C350.8,91.3,351.6,91.7,352.1,92.4 M346.4,91.5L346.4,91.5c0-0.7,0-1.5,0-2.3
			v-3.9h-1.7v16h1.2l0.4-1.4h0.1c0.4,0.6,0.9,1,1.5,1.2c0.6,0.3,1.3,0.4,2,0.4c1.5,0,2.6-0.5,3.4-1.5s1.2-2.5,1.2-4.3
			s-0.4-3.3-1.2-4.3c-0.8-1-2-1.5-3.4-1.5C348.4,89.9,347.2,90.4,346.4,91.5 M335.9,96.4c-0.5-0.5-1.4-1-2.7-1.5
			c-1-0.4-1.6-0.6-2-0.8c-0.3-0.2-0.6-0.4-0.7-0.6c-0.2-0.2-0.2-0.5-0.2-0.8c0-0.4,0.2-0.8,0.6-1c0.4-0.3,1-0.4,1.8-0.4
			c0.9,0,1.9,0.2,3.1,0.7l0.6-1.4c-1.2-0.5-2.3-0.7-3.5-0.7c-1.3,0-2.3,0.3-3.1,0.8c-0.7,0.5-1.1,1.3-1.1,2.2c0,0.5,0.1,1,0.3,1.3
			c0.2,0.4,0.5,0.7,1,1c0.4,0.3,1.2,0.6,2.2,1c1.1,0.4,1.8,0.8,2.2,1.1c0.4,0.3,0.6,0.7,0.6,1.1c0,0.6-0.2,1-0.7,1.3
			s-1.2,0.4-2.1,0.4c-0.6,0-1.2-0.1-1.8-0.2c-0.6-0.2-1.2-0.4-1.7-0.6v1.6c0.8,0.5,2,0.7,3.5,0.7c1.4,0,2.5-0.3,3.3-0.9
			c0.8-0.6,1.2-1.4,1.2-2.4C336.6,97.5,336.4,96.9,335.9,96.4 M324,92.1c0.5,0.6,0.7,1.4,0.7,2.5h-5.9c0.1-1,0.4-1.9,0.9-2.4
			c0.5-0.6,1.3-0.9,2.2-0.9C322.8,91.3,323.5,91.6,324,92.1 M324.3,101.3c0.5-0.1,1.1-0.3,1.7-0.6v-1.5c-1.2,0.5-2.4,0.8-3.6,0.8
			c-1.1,0-2-0.3-2.7-1c-0.6-0.7-1-1.7-1-3h7.7v-1.1c0-1.5-0.4-2.7-1.2-3.7c-0.8-0.9-1.9-1.4-3.3-1.4c-1.5,0-2.7,0.5-3.6,1.6
			s-1.3,2.5-1.3,4.3s0.5,3.2,1.4,4.2c1,1,2.3,1.5,3.9,1.5C323.1,101.5,323.8,101.4,324.3,101.3 M312.3,90.4c-0.6,0.4-1.1,1-1.5,1.7
			h-0.1l-0.2-2.1h-1.4v11.2h1.7v-6c0-1.1,0.3-2,1-2.8c0.6-0.7,1.4-1.1,2.3-1.1c0.4,0,0.8,0.1,1.2,0.2l0.2-1.6
			c-0.4-0.1-0.8-0.1-1.3-0.1C313.5,89.8,312.9,90,312.3,90.4 M296.1,90.1v7.4c0,1.4,0.3,2.5,1,3.1c0.7,0.7,1.7,1,3.1,1
			c0.8,0,1.5-0.1,2.1-0.4c0.6-0.3,1.1-0.7,1.5-1.3h0.1l0.2,1.5h1.4V90.2h-1.7v5.9c0,1.5-0.3,2.5-0.8,3.1s-1.4,1-2.6,1
			c-0.9,0-1.5-0.2-2-0.7c-0.4-0.5-0.6-1.1-0.6-2.1v-7.3H296.1z M291.2,99.5c-0.3-0.4-0.5-0.9-0.5-1.6v-6.6h3.3V90h-3.3v-2.6h-1
			l-0.7,2.4l-1.6,0.7v0.8h1.6V98c0,2.3,1.1,3.4,3.3,3.4c0.3,0,0.6,0,1-0.1s0.6-0.1,0.8-0.2v-1.3c-0.2,0-0.4,0.1-0.7,0.1
			c-0.3,0-0.6,0.1-0.9,0.1C291.9,100.1,291.5,99.9,291.2,99.5 M285.3,85.3h-1.7v16h1.7V85.3z M270.6,90.1v7.4c0,1.4,0.3,2.5,1,3.1
			c0.7,0.7,1.7,1,3.1,1c0.8,0,1.5-0.1,2.1-0.4c0.6-0.3,1.1-0.7,1.5-1.3h0.1l0.2,1.5h1.4V90.2h-1.7v5.9c0,1.5-0.3,2.5-0.8,3.1
			s-1.4,1-2.6,1c-0.9,0-1.5-0.2-2-0.7c-0.4-0.5-0.6-1.1-0.6-2.1v-7.3H270.6z M268.1,100.9v-1.5c-1,0.4-1.9,0.6-2.9,0.6
			c-1.1,0-1.9-0.4-2.5-1.1c-0.6-0.7-0.8-1.8-0.8-3.2c0-2.9,1.1-4.4,3.4-4.4c0.3,0,0.7,0.1,1.2,0.1c0.4,0.1,0.9,0.2,1.2,0.4l0.5-1.4
			c-0.3-0.2-0.7-0.3-1.3-0.4c-0.5-0.1-1.1-0.2-1.6-0.2c-1.7,0-3,0.5-3.9,1.5s-1.4,2.5-1.4,4.4c0,1.8,0.4,3.2,1.3,4.2
			s2.2,1.5,3.8,1.5C266.4,101.5,267.4,101.3,268.1,100.9 M245.7,91.7c0.4-0.4,1-0.6,1.8-0.6c1.7,0,2.5,0.8,2.5,2.5
			c0,1.6-0.8,2.4-2.5,2.4c-0.8,0-1.4-0.2-1.9-0.6c-0.4-0.4-0.7-1-0.7-1.8C245.1,92.8,245.3,92.2,245.7,91.7 M244.8,101.6
			c0.4-0.4,1-0.6,1.8-0.6h2c1,0,1.7,0.1,2.1,0.4c0.4,0.2,0.6,0.7,0.6,1.3c0,0.7-0.3,1.3-1,1.7s-1.7,0.6-3.2,0.6
			c-1,0-1.7-0.2-2.2-0.5s-0.8-0.8-0.8-1.4C244.2,102.5,244.4,102,244.8,101.6 M249.2,90.1c-0.5-0.1-1-0.2-1.6-0.2
			c-1.4,0-2.4,0.3-3.1,1s-1.1,1.6-1.1,2.8c0,0.7,0.2,1.4,0.5,2c0.4,0.6,0.8,1,1.4,1.2c-0.5,0.3-0.8,0.6-1,0.9
			c-0.2,0.3-0.3,0.7-0.3,1.1c0,0.4,0.1,0.7,0.3,1c0.2,0.3,0.4,0.5,0.7,0.6c-0.8,0.2-1.4,0.5-1.8,1s-0.7,1.1-0.7,1.8
			c0,1,0.4,1.8,1.2,2.3c0.8,0.5,1.9,0.8,3.4,0.8c1.9,0,3.4-0.3,4.4-1s1.5-1.6,1.5-2.8c0-1-0.3-1.7-1-2.2s-1.6-0.8-2.8-0.8h-2
			c-0.6,0-1-0.1-1.3-0.2c-0.3-0.1-0.4-0.4-0.4-0.7c0-0.6,0.4-1.1,1.1-1.4c0.3,0.1,0.6,0.1,0.9,0.1c1.3,0,2.3-0.3,3.1-1
			c0.8-0.7,1.1-1.5,1.1-2.6c0-0.5-0.1-0.9-0.2-1.3s-0.3-0.7-0.5-0.9l2.1-0.2v-1.1h-3.9V90.1z M240.5,101.3V94c0-1.4-0.3-2.5-1-3.1
			c-0.7-0.7-1.7-1-3.1-1c-0.8,0-1.5,0.2-2.1,0.5s-1.1,0.7-1.5,1.3h-0.1l-0.3-1.5H231v11.2h1.7v-5.9c0-1.5,0.3-2.5,0.8-3.1
			s1.4-1,2.6-1c0.9,0,1.5,0.2,2,0.7c0.4,0.5,0.6,1.1,0.6,2.1v7.3h1.8V101.3z M225.9,87.9c0.2,0.2,0.4,0.3,0.7,0.3
			c0.3,0,0.5-0.1,0.7-0.3s0.3-0.5,0.3-0.9s-0.1-0.7-0.3-0.9c-0.2-0.2-0.4-0.3-0.7-0.3c-0.3,0-0.5,0.1-0.7,0.3s-0.3,0.5-0.3,0.9
			C225.7,87.4,225.8,87.7,225.9,87.9 M227.5,90.1h-1.7v11.2h1.7V90.1z M220.7,99.5c-0.3-0.4-0.5-0.9-0.5-1.6v-6.6h3.3V90h-3.3v-2.6
			h-1l-0.7,2.4l-1.6,0.7v0.8h1.6V98c0,2.3,1.1,3.4,3.3,3.4c0.3,0,0.6,0,1-0.1s0.6-0.1,0.8-0.2v-1.3c-0.2,0-0.4,0.1-0.7,0.1
			c-0.3,0-0.6,0.1-0.9,0.1C221.5,100.1,221.1,99.9,220.7,99.5 M213.3,87.9c0.2,0.2,0.4,0.3,0.7,0.3c0.3,0,0.5-0.1,0.7-0.3
			s0.3-0.5,0.3-0.9s-0.1-0.7-0.3-0.9c-0.2-0.2-0.4-0.3-0.7-0.3c-0.3,0-0.5,0.1-0.7,0.3S213,86.6,213,87S213.1,87.7,213.3,87.9
			 M214.9,90.1h-1.7v11.2h1.7V90.1z M209.7,101.3V94c0-1.4-0.3-2.5-1-3.1c-0.7-0.7-1.7-1-3.1-1c-0.8,0-1.5,0.2-2.1,0.5
			s-1.1,0.7-1.5,1.3l0,0l-0.3-1.5h-1.4v11.2h1.7v-5.9c0-1.5,0.3-2.5,0.8-3.1s1.4-1,2.6-1c0.9,0,1.5,0.2,2,0.7
			c0.4,0.5,0.6,1.1,0.6,2.1v7.3h1.7V101.3z M187.3,90.1v7.4c0,1.4,0.3,2.5,1,3.1c0.7,0.7,1.7,1,3.1,1c0.8,0,1.5-0.1,2.1-0.4
			c0.6-0.3,1.1-0.7,1.5-1.3h0.1l0.2,1.5h1.4V90.2H195v5.9c0,1.5-0.3,2.5-0.8,3.1s-1.4,1-2.6,1c-0.9,0-1.5-0.2-2-0.7
			c-0.4-0.5-0.6-1.1-0.6-2.1v-7.3H187.3z"/>
		<path class="st0" d="M443.6,75.6l1.6-4.4l0,0c0,0.1,0,0.3,0,0.8c0,0.4,0,0.8,0,1v2.6h0.8v-5.3h-1.2l-1.5,4.2l0,0l-1.5-4.2h-1.2
			v5.3h0.8V73c0-0.6,0-1.2-0.1-1.8l0,0l1.5,4.4H443.6z M438.3,71.1h1.5v-0.7h-4v0.7h1.5v4.5h0.9v-4.5H438.3z"/>
		<g class="st2">
			<g>
				<g>
					<defs>
						
							<rect id="SVGID_1_" x="-3.2" y="-5.1" transform="matrix(0.7071 -0.7071 0.7071 0.7071 -15.3056 39.6721)" width="86.9" height="86.9"/>
					</defs>
					<clipPath id="SVGID_00000031202956291182702570000016757872965164889516_">
						<use xlink:href="#SVGID_1_"  style="overflow:visible;"/>
					</clipPath>
					
						<rect x="-2.1" y="35.2" transform="matrix(0.7071 -0.7071 0.7071 0.7071 -17.3703 40.5566)" style="clip-path:url(#SVGID_00000031202956291182702570000016757872965164889516_);fill:#F036A4;" width="84.8" height="12.1"/>
				</g>
			</g>
		</g>
		<g class="st4">
			<g>
				<g>
					<defs>
						
							<rect id="SVGID_00000101823038307995059730000008799365236515366034_" x="31.1" y="29.1" transform="matrix(0.7071 -0.7071 0.7071 0.7071 -29.4982 73.9718)" width="86.9" height="86.9"/>
					</defs>
					<clipPath id="SVGID_00000035514685156190904530000017301169950486002348_">
						<use xlink:href="#SVGID_00000101823038307995059730000008799365236515366034_"  style="overflow:visible;"/>
					</clipPath>
					
						<rect x="32.1" y="69.5" transform="matrix(0.7071 -0.7071 0.7071 0.7071 -31.6336 74.827)" style="clip-path:url(#SVGID_00000035514685156190904530000017301169950486002348_);fill:#F036A4;" width="84.8" height="12.1"/>
				</g>
			</g>
		</g>
		<g class="st6">
			<g>
				<g>
					<defs>
						
							<rect id="SVGID_00000068638373349651551580000007866763065941429950_" x="31.1" y="-5.2" transform="matrix(0.7071 -0.7071 0.7071 0.7071 -5.2523 63.9184)" width="86.9" height="86.9"/>
					</defs>
					<clipPath id="SVGID_00000098917532252445613970000011233462095063849358_">
						<use xlink:href="#SVGID_00000068638373349651551580000007866763065941429950_"  style="overflow:visible;"/>
					</clipPath>
					
						<rect x="68.5" y="-1.1" transform="matrix(0.7071 -0.7071 0.7071 0.7071 -7.3669 64.8236)" style="clip-path:url(#SVGID_00000098917532252445613970000011233462095063849358_);fill:#EF6722;" width="12.1" height="84.8"/>
				</g>
			</g>
		</g>
		<g class="st8">
			<g>
				<g>
					<defs>
						
							<rect id="SVGID_00000064332103475742219470000015408428212393047201_" x="13.9" y="11.9" transform="matrix(0.7071 -0.7071 0.7071 0.7071 -22.3521 56.8014)" width="86.9" height="86.9"/>
					</defs>
					<clipPath id="SVGID_00000051377331611280009010000015823356582687398061_">
						<use xlink:href="#SVGID_00000064332103475742219470000015408428212393047201_"  style="overflow:visible;"/>
					</clipPath>
					
						<rect x="51.4" y="16" transform="matrix(0.7071 -0.7071 0.7071 0.7071 -24.4667 57.7066)" style="clip-path:url(#SVGID_00000051377331611280009010000015823356582687398061_);fill:#F28751;" width="12.1" height="84.8"/>
				</g>
			</g>
		</g>
		<g class="st10">
			<g>
				<g>
					<defs>
						
							<rect id="SVGID_00000022560267870619634310000011659107967605024659_" x="-3.2" y="29.2" transform="matrix(0.7071 -0.7071 0.7071 0.7071 -39.5519 49.7258)" width="86.9" height="86.9"/>
					</defs>
					<clipPath id="SVGID_00000143591084297597894420000012141893621191561351_">
						<use xlink:href="#SVGID_00000022560267870619634310000011659107967605024659_"  style="overflow:visible;"/>
					</clipPath>
					
						<rect x="34.2" y="33.1" transform="matrix(0.7071 -0.7071 0.7071 0.7071 -41.6373 50.5603)" style="clip-path:url(#SVGID_00000143591084297597894420000012141893621191561351_);fill:#F28751;" width="12.1" height="84.8"/>
				</g>
			</g>
		</g>
		<g class="st12">
			<g>
				<g>
					<defs>
						
							<rect id="SVGID_00000175313342089660668560000012405638160053352345_" x="13.9" y="11.9" transform="matrix(0.7071 -0.7071 0.7071 0.7071 -22.3519 56.8012)" width="86.9" height="86.9"/>
					</defs>
					<clipPath id="SVGID_00000158744642771171629170000015585009877324041147_">
						<use xlink:href="#SVGID_00000175313342089660668560000012405638160053352345_"  style="overflow:visible;"/>
					</clipPath>
					
						<rect x="15" y="52.4" transform="matrix(0.7071 -0.7071 0.7071 0.7071 -24.5166 57.7271)" style="clip-path:url(#SVGID_00000158744642771171629170000015585009877324041147_);fill:#EE1A97;" width="84.8" height="12.1"/>
				</g>
			</g>
		</g>
		<g class="st14">
			<g>
				<g>
					<defs>
						
							<rect id="SVGID_00000118397009834657287110000003098905055084324744_" x="48.2" y="11.9" transform="matrix(0.7071 -0.7071 0.7071 0.7071 -1.6437 55.3476)" width="35.5" height="35.5"/>
					</defs>
					<clipPath id="SVGID_00000035523638509304442370000008336639385020277434_">
						<use xlink:href="#SVGID_00000118397009834657287110000003098905055084324744_"  style="overflow:visible;"/>
					</clipPath>
					
						<rect x="59.9" y="26.7" transform="matrix(0.7071 -0.7071 0.7071 0.7071 -3.8437 56.2589)" style="clip-path:url(#SVGID_00000035523638509304442370000008336639385020277434_);fill:#F038A5;" width="12.1" height="12.1"/>
				</g>
			</g>
		</g>
		<g class="st14">
			<g>
				<g>
					<defs>
						
							<rect id="SVGID_00000046310805182977547190000013237121328622217903_" x="82.5" y="46.3" transform="matrix(0.7071 -0.7071 0.7071 0.7071 -15.9069 89.618)" width="35.5" height="35.5"/>
					</defs>
					<clipPath id="SVGID_00000130647658757607842620000003173236736324326067_">
						<use xlink:href="#SVGID_00000046310805182977547190000013237121328622217903_"  style="overflow:visible;"/>
					</clipPath>
					
						<rect x="94.2" y="60.9" transform="matrix(0.7071 -0.7071 0.7071 0.7071 -18.0069 90.4878)" style="clip-path:url(#SVGID_00000130647658757607842620000003173236736324326067_);fill:#F35CB5;" width="12.1" height="12.1"/>
				</g>
			</g>
		</g>
		<g class="st14">
			<g>
				<g>
					<defs>
						
							<rect id="SVGID_00000113348518239278967340000003085320139214031017_" x="13.9" y="11.9" transform="matrix(0.7071 -0.7071 0.7071 0.7071 -11.6973 31.1015)" width="35.5" height="35.5"/>
					</defs>
					<clipPath id="SVGID_00000024708129922664215330000003199516131316561300_">
						<use xlink:href="#SVGID_00000113348518239278967340000003085320139214031017_"  style="overflow:visible;"/>
					</clipPath>
					
						<rect x="25.7" y="26.7" transform="matrix(0.7071 -0.7071 0.7071 0.7071 -13.8266 32.0421)" style="clip-path:url(#SVGID_00000024708129922664215330000003199516131316561300_);fill:#EE1A97;" width="12.1" height="12.1"/>
				</g>
			</g>
		</g>
		<g class="st14">
			<g>
				<g>
					<defs>
						
							<rect id="SVGID_00000018226428844799806120000004789228218589641620_" x="39.6" y="37.6" transform="matrix(0.7071 -0.7071 0.7071 0.7071 -22.3521 56.8013)" width="35.5" height="35.5"/>
					</defs>
					<clipPath id="SVGID_00000093156814380997353680000005061254479530491035_">
						<use xlink:href="#SVGID_00000018226428844799806120000004789228218589641620_"  style="overflow:visible;"/>
					</clipPath>
					
						<rect x="51.4" y="52.4" transform="matrix(0.7071 -0.7071 0.7071 0.7071 -24.4813 57.7418)" style="clip-path:url(#SVGID_00000093156814380997353680000005061254479530491035_);fill:#F466BA;" width="12.1" height="12.1"/>
				</g>
			</g>
		</g>
		<g class="st14">
			<g>
				<g>
					<defs>
						
							<rect id="SVGID_00000078017243056561913860000002511049235847320997_" x="56.8" y="54.8" transform="matrix(0.7071 -0.7071 0.7071 0.7071 -29.4983 73.9719)" width="35.5" height="35.5"/>
					</defs>
					<clipPath id="SVGID_00000167361416216163593180000003259521606111712948_">
						<use xlink:href="#SVGID_00000078017243056561913860000002511049235847320997_"  style="overflow:visible;"/>
					</clipPath>
					
						<rect x="68.5" y="69.5" transform="matrix(0.7071 -0.7071 0.7071 0.7071 -31.5982 74.8417)" style="clip-path:url(#SVGID_00000167361416216163593180000003259521606111712948_);fill:#B0552B;" width="12.1" height="12.1"/>
				</g>
			</g>
		</g>
		<g class="st14">
			<g>
				<g>
					<defs>
						
							<rect id="SVGID_00000132067665856367288430000004877937581365994422_" x="5.3" y="37.6" transform="matrix(0.7071 -0.7071 0.7071 0.7071 -32.4056 32.5553)" width="35.5" height="35.5"/>
					</defs>
					<clipPath id="SVGID_00000170986885492763024810000008049973430278644885_">
						<use xlink:href="#SVGID_00000132067665856367288430000004877937581365994422_"  style="overflow:visible;"/>
					</clipPath>
					
						<rect x="17.1" y="52.4" transform="matrix(0.7071 -0.7071 0.7071 0.7071 -34.5349 33.4958)" style="clip-path:url(#SVGID_00000170986885492763024810000008049973430278644885_);fill:#A74213;" width="12.1" height="12.1"/>
				</g>
			</g>
		</g>
		<g class="st14">
			<g>
				<g>
					<defs>
						
							<rect id="SVGID_00000086682447379345529910000003283895817677264277_" x="31" y="63.4" transform="matrix(0.7071 -0.7071 0.7071 0.7071 -43.0604 58.255)" width="35.5" height="35.5"/>
					</defs>
					<clipPath id="SVGID_00000137108968310736261090000014484820610124554381_">
						<use xlink:href="#SVGID_00000086682447379345529910000003283895817677264277_"  style="overflow:visible;"/>
					</clipPath>
					
						<rect x="42.8" y="78.1" transform="matrix(0.7071 -0.7071 0.7071 0.7071 -45.1897 59.1955)" style="clip-path:url(#SVGID_00000137108968310736261090000014484820610124554381_);fill:#EE1C98;" width="12.1" height="12.1"/>
				</g>
			</g>
		</g>
	</g>
</g>
</svg>
