<?xml version="1.0" encoding="utf-8"?>
<!-- Generator: Adobe Illustrator 27.0.0, SVG Export Plug-In . SVG Version: 6.00 Build 0)  -->
<svg version="1.1" id="Layer_1" xmlns="http://www.w3.org/2000/svg" xmlns:xlink="http://www.w3.org/1999/xlink" x="0px" y="0px"
	 viewBox="0 0 712 174.1" style="enable-background:new 0 0 712 174.1;" xml:space="preserve">
<style type="text/css">
	.st0{clip-path:url(#SVGID_00000075876166883008662990000005090007714551382705_);fill:#FFFFFF;}
	.st1{fill:#FFFFFF;}
</style>
<g>
	<defs>
		<rect id="SVGID_1_" x="4.9" y="7.9" width="701.4" height="162.1"/>
	</defs>
	<clipPath id="SVGID_00000070086827177868068270000004856059433943567539_">
		<use xlink:href="#SVGID_1_"  style="overflow:visible;"/>
	</clipPath>
	<path style="clip-path:url(#SVGID_00000070086827177868068270000004856059433943567539_);fill:#FFFFFF;" d="M542.2,159.7V87.5
		c0-14.1-3.4-24.4-10.1-30.8c-6.7-6.4-16.8-9.6-30.1-9.6c-7.6,0-14.5,1.5-20.7,4.5c-6.2,3-11,7.2-14.4,12.7H466L463.3,49h-13.6
		v110.7h16.8v-58.1c0-14.4,2.7-24.7,8.1-31c5.4-6.3,13.9-9.4,25.5-9.4c8.7,0,15.2,2.2,19.3,6.7c4.1,4.4,6.2,11.2,6.2,20.2v71.6
		H542.2z M396.1,69.4c4.7,5.6,7.1,13.7,7.1,24.3h-57.9c0.9-10.2,4.1-18.2,9.3-24c5.3-5.8,12.4-8.7,21.3-8.7
		C384.6,61,391.4,63.8,396.1,69.4 M399.5,160c5.3-1.1,10.9-2.9,16.8-5.5v-14.9c-11.7,5-23.4,7.5-35.3,7.5
		c-11.3,0-20.1-3.4-26.3-10.1c-6.2-6.7-9.5-16.6-9.8-29.6h76.2V96.7c0-14.9-4-27-12.1-36.1c-8.1-9.1-19.1-13.7-32.9-13.7
		c-14.8,0-26.6,5.3-35.4,15.8c-8.8,10.5-13.2,24.7-13.2,42.5c0,17.7,4.7,31.5,14.2,41.5c9.5,10,22.4,14.9,38.7,14.9
		C387.9,161.7,394.3,161.1,399.5,160 M283.4,142.5c-3.2-3.6-4.7-8.7-4.7-15.4V62h32.1V49h-32.1V23.3h-9.7L261.9,47l-15.9,7V62h15.9
		v65.8c0,22.5,10.7,33.8,32.1,33.8c2.8,0,6-0.3,9.5-0.9c3.5-0.6,6.2-1.3,8-2.2v-12.8c-1.6,0.5-3.8,0.9-6.6,1.4
		c-2.8,0.4-5.6,0.7-8.6,0.7C290.9,147.8,286.5,146.1,283.4,142.5 M226.5,111.2c-4.6-4.8-13.5-9.7-26.6-14.4
		c-9.6-3.6-16-6.3-19.4-8.2c-3.4-1.9-5.8-3.9-7.3-6c-1.5-2.1-2.3-4.6-2.3-7.6c0-4.4,2-7.8,6.1-10.3c4-2.5,10-3.7,18-3.7
		c9,0,19.1,2.3,30.2,6.9l6-13.6c-11.4-4.8-23-7.3-34.9-7.3c-12.8,0-22.9,2.6-30.2,7.8c-7.3,5.2-11,12.3-11,21.4c0,5,1.1,9.4,3.2,13
		c2.1,3.6,5.3,6.9,9.7,9.7c4.3,2.9,11.7,6.2,22,10c10.8,4.2,18.1,7.8,21.9,10.9c3.7,3.1,5.6,6.7,5.6,11.1c0,5.7-2.4,10-7.1,12.8
		c-4.7,2.8-11.5,4.2-20.2,4.2c-5.7,0-11.5-0.8-17.6-2.3c-6.1-1.5-11.8-3.7-17.1-6.4v15.6c8.2,4.6,19.7,7,34.3,7
		c13.9,0,24.6-2.8,32.3-8.4c7.7-5.6,11.5-13.5,11.5-23.8C233.4,122.1,231.1,116,226.5,111.2 M111.1,27.4c1.9,1.9,4.2,2.8,7.1,2.8
		c2.7,0,5-0.9,7-2.8c2-1.9,2.9-4.7,2.9-8.4c0-3.8-1-6.6-2.9-8.4c-2-1.8-4.3-2.7-7-2.7c-2.8,0-5.2,0.9-7.1,2.7
		c-1.9,1.8-2.8,4.6-2.8,8.4C108.3,22.8,109.2,25.6,111.1,27.4 M126.4,49h-16.8v110.7h16.8V49z M87.2,159.7v-15.6H22V12H4.9v147.6
		H87.2z"/>
</g>
<polygon class="st1" points="612.6,26.5 667.6,98.2 612.6,170 651.3,170 706.3,98.2 651.3,26.5 "/>
</svg>
