<?xml version="1.0" encoding="utf-8"?>
<!-- Generator: Adobe Illustrator 27.4.1, SVG Export Plug-In . SVG Version: 6.00 Build 0)  -->
<svg version="1.1" id="Layer_1" xmlns="http://www.w3.org/2000/svg" xmlns:xlink="http://www.w3.org/1999/xlink" x="0px" y="0px"
	 viewBox="0 0 792 286.7" style="enable-background:new 0 0 792 286.7;" xml:space="preserve">
<style type="text/css">
	.st0{fill:#1A1A1A;}
	.st1{font-family:'OpenSans';}
	.st2{font-size:92.1923px;}
	.st3{letter-spacing:146;}
	.st4{fill:#010101;}
</style>
<g>
	<text transform="matrix(1 0 0 1 21.6431 152.0836)"><tspan x="0" y="0" class="st0 st1 st2 st3"> </tspan><tspan x="170.2" y="0" class="st0 st1 st2"> </tspan></text>
	<path class="st4" d="M741.7,194.8c1.3,0,2.7-1,4.2-3.1c4.7-6.2,9-12.8,12.9-19.8c11.5-20.7,17.3-39.5,17.3-56.4
		c0-16.9-7.3-25.8-21.8-26.9c-2.9,0.4-4.4,1.7-4.4,3.9c0,0.8,0.3,1.4,0.9,1.8c0.6,0.4,1.7,0.7,3.2,0.9c1.5,0.1,3.1,0.5,5,1.3
		c6.5,2.5,9.7,9.3,9.7,20.3c0,10.4-2.1,20.7-6.3,31.1s-10.5,22.2-19,35.5c-1.7-14.8-3.1-26.6-4.4-35.5c-1.4-10.6-2.6-21.3-3.8-32.2
		c-0.5-1.8-1.5-2.7-3-2.7c-0.7,0-1.5,0.4-2.4,1.2c-0.9,0.8-1.5,1.6-1.8,2.6c1.6,11.9,3.2,25,4.9,39.1c1.1,11.7,2.6,23.6,4.4,35.7
		C737.6,193.7,739.1,194.8,741.7,194.8 M678.2,188.7c-1.4,0-2.8-0.4-4.2-1.1c-4.1-2.7-6.1-7.6-6.1-14.8c0-10.5,2.8-21.3,8.3-32.4
		c3.6-7.4,7.8-12.7,12.6-15.7c2.4-1.7,4.7-2.5,6.9-2.5c2,0,3.5,0.3,4.4,0.9c0.9,0.6,1.7,1.7,2.4,3.3c0.7,1.5,1.1,5.2,1.1,11.3
		c0,5.9-1.4,13-4.2,21.4c-2.7,8.4-6.1,15.4-10.1,21C685.1,185.8,681.5,188.7,678.2,188.7 M677,195.7c3.1,0,6.3-1,9.4-3
		c4.1-2.6,8-6.9,11.9-12.9c3.8-6,6.9-12.8,9.3-20.4c2.4-7.6,3.6-15.1,3.6-22.5c0-14.7-4.8-22-14.5-22c-6.7,0-12.7,3-18.1,8.9
		c-5.6,5.9-9.9,13.3-13.1,22.2c-3.2,9-4.8,18.2-4.8,27.7c0,6,1.3,11.1,4,15.4C667.5,193.6,671.5,195.7,677,195.7 M624.3,194.8
		c1.3,0,2.7-1,4.2-3.1c4.7-6.2,9-12.8,12.9-19.8c11.5-20.7,17.3-39.5,17.3-56.4c0-16.9-7.3-25.8-21.8-26.9c-2.9,0.4-4.4,1.7-4.4,3.9
		c0,0.8,0.3,1.4,0.9,1.8c0.6,0.4,1.7,0.7,3.2,0.9c1.5,0.1,3.1,0.5,5,1.3c6.5,2.5,9.7,9.3,9.7,20.3c0,10.4-2.1,20.7-6.3,31.1
		s-10.5,22.2-19,35.5c-1.7-14.8-3.1-26.6-4.4-35.5c-1.4-10.6-2.6-21.3-3.8-32.2c-0.5-1.8-1.5-2.7-3-2.7c-0.7,0-1.5,0.4-2.4,1.2
		c-0.9,0.8-1.5,1.6-1.8,2.6c1.6,11.9,3.2,25,4.9,39.1c1.1,11.7,2.6,23.6,4.4,35.7C620.3,193.7,621.7,194.8,624.3,194.8 M593.1,83.5
		c1.9,0,3.5-0.7,4.9-2.1c1.4-1.4,2.1-3.1,2.1-4.9c0-2-1.1-4-3.2-6.2c-1.9-1.5-3.9-2.2-6-2.2c-2.1,0-4.1,0.9-5.9,2.6
		c-1.8,1.7-2.7,3.7-2.7,5.8c0,4.2,1.8,6.3,5.4,6.3h0.7C589.6,83.3,591.1,83.5,593.1,83.5 M574.2,196.2c1.2,0,3-0.5,5.2-1.4
		c2.2-0.9,4.2-2.1,6-3.6c1.7-1.5,2.6-3,2.6-4.5c0-2.5-1-3.7-3-3.7c-1,0-2.2,0.7-3.7,2.2c-1.6,1.6-2.7,2.4-3.4,2.4
		c-1.2,0-1.9-0.7-1.9-2.1c0-1.5,2.9-14.4,8.6-38.8c5.7-24.4,8.6-37.8,8.6-40.3c0-2.2-0.5-4.3-1.5-6.2c-1-1.9-2.2-2.8-3.5-2.8
		c-1.5,0-2.8,0.6-3.8,1.9c-1.1,1.2-1.6,2.6-1.6,4.1c0.9,3.1,1.3,5.2,1.3,6.2v1.9c0,0.9-0.6,4-1.9,9.3c-0.3,1.7-0.5,3-0.8,3.7
		c-1.7,7.6-3.2,14.4-4.5,20.5l-3.7,16.4l-2.8,12.5c-0.5,2.7-1.1,5.2-1.7,7.3c-0.6,1.4-0.9,2.9-0.9,4.7
		C567.9,192.8,570,196.2,574.2,196.2 M468.8,198.6c1.4,0,2.6-0.9,3.6-2.6c1.7-7,4.3-16.8,7.9-29.6c3.5-12.3,6.3-22.7,8.4-31.4
		c13.2-3.6,29.7-5.7,49.4-6.5l-1.8,11.2l-1.1,6c-4.3,21.7-6.7,37.4-7,47.2c0.2,1.8,0.9,2.7,2.2,2.7c0.8,0,1.6-0.3,2.4-1
		c0.8-0.7,1.3-1.5,1.3-2.6c0.3-5.9,0.8-11.8,1.8-17.9c0.9-6.1,2.3-13.9,4.1-23.4c2.1-10.9,3.4-18.4,4-22.5l14.3,0.1
		c0.9-0.3,1.6-0.7,2.2-1.5c0.6-0.7,0.9-1.4,0.9-2.1c0-0.6-0.2-1.1-0.6-1.6c-0.4-0.5-0.9-0.7-1.6-0.7h-14.3c0.6-4.3,2.6-16.9,6-37.9
		c1.4-8.3,2-12.7,2-13c0-0.7-0.2-1.2-0.6-1.6c-0.4-0.4-0.9-0.6-1.5-0.6c-0.9,0-1.6,0.3-2.4,0.8c-0.7,0.6-1.2,1.3-1.3,2.2l-1,6.4
		c-2.7,14.8-5.1,29.4-7,43.8c-19.8,0.9-36,3-48.6,6.3c4.1-25.3,6.6-43.9,7.7-56c0.1-0.8,0-1.3-0.4-1.7c-0.3-0.3-0.9-0.5-1.8-0.5
		c-2.2,0-3.4,1-3.7,3.1l-1,9.1c-2.4,22.2-4.7,38.1-7,47.7c-5.2,1.4-8.9,3-11.1,4.8s-3.3,4.3-3.3,7.5c0,2.5,0.9,3.7,2.7,3.7
		c1.3,0,2.1-0.3,2.5-1c0.4-0.6,0.6-1.6,0.6-2.7c0-1.6,0.5-2.9,1.5-4c1-1,2.9-1.9,5.6-2.7c-1,3.9-1.8,6.9-2.4,8.8
		c-6,21.9-10.5,38.9-13.4,51C466.8,197.8,467.5,198.6,468.8,198.6 M479.5,235.7c12.5,0,25.4-1.7,38.7-5.1
		c13.3-3.4,24.9-7.7,34.7-12.9c4.3-2.3,6.4-4.4,6.4-6.2c0-1.8-1.2-2.7-3.7-2.7c-1.6,0-3.7,0.5-6.1,1.4c-2.5,0.9-5.1,2.2-7.9,3.7
		c-2.8,1.5-4.5,2.4-5.2,2.8c-6.6,3.2-14.3,5.9-23.1,7.9c-8.8,2.1-18.3,3.1-28.4,3.1c-30.4,0-62.6-10.5-96.4-31.4
		c-16.4-9.9-28.8-14.9-37.4-14.9c-5.3,0-10.3,1-14.9,3c24-19.9,48.6-41.2,73.7-63.8c25.1-22.6,46-42.1,62.8-58.5
		c16.7-16.4,25.1-25.4,25.1-27c0-2.2-3.7-3.3-10.9-3.3c-8,0-17.7,0.4-29.1,1.2c-5,0.4-9.7,0.8-14,1c-4.4,0.2-9.3,0.3-14.8,0.3
		l-28-0.3c-3.6-0.1-8.5-0.2-14.8-0.3c-6.3-0.1-14.6-0.2-25-0.3c-5.3,0-8,1.4-8,4.3c0,1.6,1.2,2.6,3.7,3.2c7.5,0.7,19.3,1,35.5,1
		c25.1,0,54.4-0.7,87.9-2c-19.6,21.8-47.6,48.7-84.1,80.6l-41.7,35.7l-3.7,3.2c-11.4,9.6-20.1,17.1-26.2,22.5c-6,5.5-9.1,8.8-9.1,10
		c0,2,1.6,3,4.8,3c2.3,0,5.8-1,10.4-2.8c0.5-0.1,1.6-0.4,3.1-1c1.5-0.6,3.2-1.1,4.9-1.6c1.8-0.5,3.7-0.8,5.6-0.8
		c6.6,0,12.5,1.2,17.8,3.8s11.3,6,18,10.6c6.4,4.6,15.4,9.4,27,14.4c11.6,5.1,23.9,9.3,36.9,12.9
		C456.7,233.9,468.6,235.7,479.5,235.7 M233.7,180.4c-1.9,0-2.8-0.9-2.8-2.8c0-6.3,2.3-13.5,7-21.5c4.4-8,10-15.5,16.9-22.6
		c6.9-7.1,12.8-11.8,17.8-14c2-0.9,3.6-1.4,4.9-1.4c1,0,1.8,0.4,2.5,1.3c0.6,0.8,0.9,1.8,0.9,2.8c0,2-0.5,4-1.6,6.1
		c-1.1,2.1-3.7,6.5-8,13.2c-9.9,16.1-21.3,28.7-34.1,37.9C236.2,180.1,235.1,180.4,233.7,180.4 M285.4,188.9c1.4,0,2.5-0.4,3.4-1.3
		c0.9-0.8,1.3-1.8,1.3-2.8c0-1.6-1.5-3.1-4.5-4.7l-1.9-0.9c0-6.8,0.9-15.3,2.8-25.6c1.9-10.3,3.7-18,5.5-23.2l2.3-6.9v-0.6
		c0-2.3-1.4-3.5-4.3-3.5c-0.8,0-1.4,0.2-2.1,0.5c0-1.5-0.2-2.8-0.6-4.1c-0.8-4.2-4-6.3-9.8-6.3c-5.7,0-13.1,4-22.2,11.9
		c-9.2,8.1-17.1,17.6-23.8,28.5c-6.7,10.9-10,20.1-10,27.4c0,7.5,3.6,11.3,10.7,11.3c3.8,0,7.2-1,10.4-3c2.3-1.4,5.8-4.3,10.6-8.8
		c4.8-4.5,9.6-9.7,14.6-15.6c5-5.9,9-11.7,12.2-17.4c-4.1,15.5-6.2,26.5-6.2,33c0,2.9,1.2,5.7,3.7,8.2
		C279.8,187.6,282.5,188.9,285.4,188.9 M167.1,262.2c-3,0-5.4-1-7.1-3c-1.7-2-2.6-5-2.6-9c0-6.8,1.9-12.8,5.7-18
		c3.8-5.2,8.5-10.4,14.3-15.6c3.8-3.4,7.5-7,11.3-10.7l-2.4,14.9c-1.5,9.2-2.9,16.6-4.3,22.3c-1.4,5.7-3.3,10.3-5.7,13.9
		C173.8,260.4,170.7,262.2,167.1,262.2 M174.5,186.8c-3.9,0-5.8-4.5-5.8-13.4c0-8.9,1.6-18.8,4.9-29.6c3.3-10.9,7.5-20,12.3-27.1
		c4.9-7.2,9.6-10.7,14.1-10.7c2.6,0,4.7,0.8,6.1,2.5l-2.8,12.4l-6.1,25.6c-1.8,7.2-4,13.9-6.7,20.1c-2.7,6.2-5.4,11.2-8.2,14.8
		C179.3,185,176.8,186.8,174.5,186.8 M167.4,271.6c4.9,0,9.3-2.5,13-7.5c4.8-6.4,8.7-19,11.8-37.7l4.6-27.7
		c5.6-4.8,11-9.7,16.5-14.7c0.8-1,1.3-2.3,1.3-3.8c0-2.1-0.9-3.2-2.8-3.2c-0.5,0-1.2,0.3-2,0.9c-0.8,0.6-1.8,1.4-2.9,2.6
		c-1.2,1.2-1.9,2-2.4,2.4c-3.5,3.5-5.7,5.7-6.8,6.6l6.9-38.3c3.1-16.6,5.4-27.8,6.8-33.7c0.2-0.8,0.7-2.8,1.6-6
		c0.8-3.3,1.3-5.8,1.3-7.5c0-2-0.8-3-2.5-3c-0.7,0-1.4,0.2-2,0.6c-3-2-6.2-3-9.6-3c-7.2,0-13.7,4.3-19.5,13
		c-5.9,8.5-10.5,18.8-13.9,30.7c-3.4,11.9-5.1,23.4-5.1,34.5c0,5.9,1.1,10.5,3.2,13.9c2.1,3.3,5.2,5,9,5c4.1,0,8.1-3.2,12.2-9.5
		c4-6.3,7.5-14.4,10.3-24.2c-0.8,3.8-1.9,9.4-3.3,16.8c-1.4,7.4-2.4,13.1-3.1,17.1c-4.6,4.5-9.2,8.7-13.7,12.6
		c-0.3,0.3-0.7,0.6-1.3,1c-0.5,0.4-1.1,0.9-1.7,1.4c-5,4.4-9.1,8.3-12.2,11.6c-3.1,3.3-5.8,7.3-8,11.8c-2.2,4.5-3.4,9.5-3.4,15.1
		c0,6.7,1.7,12.1,5,16.2C158,269.5,162.3,271.6,167.4,271.6 M132.5,195.6c4.1,0,7.6-0.7,10.5-2c2.9-1.3,4.4-3.1,4.4-5.4
		c0-2.3-1.1-3.5-3.5-3.5c-0.2,0-0.7,0.2-1.6,0.6l-2.7,1.4c-0.4,0.2-1.3,0.6-2.6,1.2c-1.3,0.6-2.7,0.9-4.2,0.9
		c-1.4,0-2.5-0.6-3.5-1.9c-0.9-1.3-1.4-2.7-1.4-4.2c0-1.9,0.7-6.6,2-14.1c1.1-6.9,3.9-20.7,8.2-41.5c4.3-20.7,7.9-37.7,10.8-50.9
		c1.7-8.2,2.8-13.7,3.5-16.6c0.6-2.9,1.2-6,1.7-9.3l0.6-4.1c0-2.4-1.1-3.6-3.3-3.6c-1.8,0-2.9,0.8-3.5,2.5
		c-0.6,2.1-5.4,24.7-14.5,67.7l-4.1,19.8c-2.6,12.5-4.8,23.6-6.4,33.3c-0.8,5-1.4,8.7-1.7,11.1c-0.3,2.4-0.5,4.9-0.5,7.8
		c0,3.2,1,5.9,2.9,7.9C125.9,194.6,128.7,195.6,132.5,195.6 M51.5,204.1c9.3,0,18-3.5,26.3-10.5c8.2-7,15.4-16.8,21.6-29.2
		c5.9-12.1,10.5-25.2,13.8-39.5c3.2-14.2,4.9-28.1,4.9-41.5c0-18.9-2.6-34.5-7.7-46.8c-5.2-12.3-15.1-18.5-29.9-18.5
		c-2.8,0.4-4.2,1.7-4.2,4.1c0,1.2,0.9,2.2,2.7,2.9c1.8,0.7,4.3,1.3,7.6,2c2.5,0.5,4.2,0.9,5.2,1.3c4.8,1.5,8.8,5.7,12.1,12.7
		c4.3,9.6,6.4,21.9,6.4,36.9c0,12.2-1.3,24.6-3.9,37.3c-2.6,13.4-6.3,26.3-11.2,38.5c-4.9,12.3-11,22.3-18.2,30
		c-7.2,7.8-15.1,11.7-23.8,11.7c-8.3,0-14.3-4.4-18.1-13.2c-3.8-8.8-5.7-22.6-5.7-41.2c0-11.2,1.8-24.6,5.5-40.1
		c3.6-15.5,8.7-29,15.2-40.4C56.3,49.2,63.7,43.5,72,43.5c5.1,0,10.2,1.6,15.1,4.7c1.6,0.9,3,1.3,4.2,1.3c1,0,1.8-0.2,2.3-0.7
		c0.6-0.5,0.8-1.2,0.8-2c0-1.5-0.8-3.1-2.3-4.9c-5.3-5-11.1-7.5-17.6-7.5c-10.3,0-19.4,5.4-27.4,16.1c-8,10.8-14.2,24.7-18.7,41.8
		c-4.5,17.1-6.7,34.7-6.7,52.7C21.6,184.4,31.6,204.1,51.5,204.1"/>
</g>
</svg>
