<?xml version="1.0" encoding="utf-8"?>
<!-- Generator: Adobe Illustrator 26.0.1, SVG Export Plug-In . SVG Version: 6.00 Build 0)  -->
<svg version="1.1" id="Layer_1" xmlns="http://www.w3.org/2000/svg" xmlns:xlink="http://www.w3.org/1999/xlink" x="0px" y="0px"
	 viewBox="0 0 512 512" style="enable-background:new 0 0 512 512;" xml:space="preserve">
<style type="text/css">
	.st0{fill:#FFF100;}
	.st1{fill:#231F20;}
</style>
<g>
	<rect x="0" y="0" class="st0" width="512" height="512"/>
	<g>
		<path class="st1" d="M64,196.6h68.3c18.9,0,46.5,4.1,46.5,33c0,24.7-22.9,31.9-37.3,32.5l39.1,52.7h-17.7l-38.1-52.4H78.3v52.4H64
			V196.6z M78.3,249.8h50.8c20.7,0,36.1-2.9,36.1-20.3c0-17.3-15.5-20.2-36.1-20.2H78.3V249.8z"/>
		<path class="st1" d="M197,197.1h69.3c23.9,0,45.7,6.8,45.7,33.8c0,27.2-21.8,34-45.7,34h-55v50.4H197V197.1z M211.3,252.3h51.3
			c23.8,0,35.8-5,35.8-21.2c0-16.3-12-21.3-35.8-21.3h-51.3V252.3z"/>
		<path class="st1" d="M326.3,196.6h58.4c36.8,0,63.3,19.4,63.3,58.1c0,48.2-36.6,60.2-67.9,60.2h-53.9V196.6z M340.6,302.2h41.8
			c11.7,0,50.9-1.5,50.9-48c0-34.7-24.6-44.9-48.7-44.9h-44.1V302.2z"/>
	</g>
</g>
</svg>
